<?xml version="1.0"?>
<svg xmlns="http://www.w3.org/2000/svg" width="24.0" height="24.0" viewBox="0 0 24.0 24.0">
  <path d="M11.25,16V12H12.75V16H11.25Z" fill="currentColor" />
  <path d="M7.25,12V16H8.75V12H7.25Z" fill="currentColor" />
  <path d="M15.25,16V12H16.75V16H15.25Z" fill="currentColor" />
  <path d="M8.2116,4.2372L6.9573,8H17.0427L15.7884,4.2372H17.3695L18.6238,8H23V9.5H21.6557L19.4084,19.3879C19.2273,20.1846 18.519,20.75 17.7019,20.75H6.2984C5.4813,20.75 4.773,20.1846 4.5919,19.3879L2.3447,9.5H1L1,8H5.3762L6.6305,4.2372H8.2116ZM3.8829,9.5L6.0546,19.0554C6.0805,19.1693 6.1817,19.25 6.2984,19.25H17.7019C17.8187,19.25 17.9198,19.1693 17.9457,19.0554L20.1174,9.5H3.8829Z" fill="currentColor" />
</svg>
