<?xml version="1.0"?>
<svg xmlns="http://www.w3.org/2000/svg" width="24.0" height="24.0" viewBox="0 0 24.0 24.0">
  <path d="M16,3.5C15.5858,3.5 15.25,3.8358 15.25,4.25V20H16.75V15.75H19.5C20.1904,15.75 20.75,15.1904 20.75,14.5V7.25C20.75,4.4712 18.3427,3.5 16,3.5ZM19.25,14.25H16.75V5C18.0586,5 19.25,5.832 19.25,7.25V14.25Z" fill="currentColor" />
  <path d="M3.5838,8.6111L4.2577,4H5.7426L5.0687,8.8232C4.9612,9.5763 5.5455,10.25 6.3062,10.25H7V4H8.5V10.25H9.1941C9.9548,10.25 10.5392,9.5763 10.4316,8.8232L9.7577,4H11.2426L11.9165,8.6111C12.1532,10.2678 10.8677,11.75 9.1941,11.75H8.5V20H7V11.75H6.3062C4.6327,11.75 3.3472,10.2678 3.5838,8.6111Z" fill="currentColor" />
</svg>
