<?xml version="1.0"?>
<svg xmlns="http://www.w3.org/2000/svg" width="24.0" height="24.0" viewBox="0 0 24.0 24.0">
  <path d="M10.0731,3.5725C10.0674,3.4071 10.0459,3.2183 10.0014,3H11.5239C11.5507,3.1815 11.5665,3.3549 11.5722,3.5213C11.601,4.3649 11.3669,4.9621 11.1177,5.4604C11.0546,5.5866 10.9957,5.6987 10.9412,5.8025C10.7735,6.1215 10.6471,6.3621 10.5673,6.692C10.5036,6.9554 10.4716,7.2891 10.5329,7.75H9.0233C8.9715,7.2149 9.0087,6.7553 9.1093,6.3393C9.2374,5.8097 9.4753,5.3609 9.6572,5.0178C9.7008,4.9355 9.7412,4.8594 9.7761,4.7896C9.9644,4.413 10.0902,4.0726 10.0731,3.5725Z" fill="currentColor" />
  <path d="M1.75,9.75C1.75,9.3358 2.0858,9 2.5,9H21.5C21.9142,9 22.25,9.3358 22.25,9.75C22.25,15.1725 17.6222,19.5 12,19.5C6.3778,19.5 1.75,15.1725 1.75,9.75ZM3.2859,10.5C3.6868,14.6742 7.4011,18 12,18C16.5989,18 20.3132,14.6742 20.7141,10.5H3.2859Z" fill="currentColor" />
  <path d="M14.0014,3C14.0459,3.2183 14.0674,3.4071 14.0731,3.5725C14.0902,4.0726 13.9644,4.413 13.7761,4.7896C13.7412,4.8594 13.7008,4.9355 13.6572,5.0178C13.4753,5.3609 13.2374,5.8097 13.1093,6.3393C13.0087,6.7553 12.9715,7.2149 13.0233,7.75H14.5329C14.4716,7.2891 14.5036,6.9554 14.5673,6.692C14.6471,6.3621 14.7735,6.1216 14.9411,5.8026C14.9957,5.6988 15.0546,5.5866 15.1177,5.4604C15.3669,4.9621 15.601,4.3649 15.5722,3.5213C15.5665,3.3549 15.5507,3.1815 15.5239,3H14.0014Z" fill="currentColor" />
</svg>
