<?xml version="1.0"?>
<svg xmlns="http://www.w3.org/2000/svg" width="24.0" height="24.0" viewBox="0 0 24.0 24.0">
  <path d="M4,5.5C4,4.6716 4.6716,4 5.5,4H7V5.5H5.5V16.5H17.5V5.5H13V4H17.5C18.3284,4 19,4.6716 19,5.5V16.5C19,17.3284 18.3284,18 17.5,18H5.5V19C5.5,19.6904 6.0596,20.25 6.75,20.25H18V21.75H6.75C5.2312,21.75 4,20.5188 4,19V5.5Z" fill="currentColor" />
  <path d="M8.75,2C7.7835,2 7,2.7835 7,3.75V10H8.3521L10,8.9014L11.6479,10H13V3.75C13,2.7835 12.2165,2 11.25,2H8.75ZM8.5,3.75C8.5,3.6119 8.6119,3.5 8.75,3.5H11.25C11.3881,3.5 11.5,3.6119 11.5,3.75V8.0986L10,7.0987L8.5,8.0986V3.75Z" fill="currentColor" />
</svg>
