<?xml version="1.0"?>
<svg xmlns="http://www.w3.org/2000/svg" width="24.0" height="24.0" viewBox="0 0 24.0 24.0">
  <path d="M9.0508,6.3192C9.3474,5.3848 10.2149,4.75 11.1953,4.75H14.8985L15.6242,8.0155C14.4814,8.3353 13.2491,8.1748 12.2199,7.5572L11.886,7.3569C11.6718,7.2283 11.4076,7.2149 11.1814,7.3211C10.9553,7.4272 10.7968,7.639 10.7588,7.886L9.7589,14.386C9.7136,14.6797 9.8462,14.9725 10.0968,15.1323C10.3475,15.2922 10.6688,15.2889 10.9162,15.124C12.3243,14.1853 13.4631,13.875 14.3595,13.875C15.2517,13.875 15.9756,14.1822 16.559,14.6066C16.7283,14.7297 16.8854,14.8625 17.0304,15H18.9976C18.6395,14.4914 18.1265,13.8918 17.4413,13.3934C16.6497,12.8178 15.6236,12.375 14.3595,12.375C13.4792,12.375 12.519,12.5897 11.4773,13.081L12.0787,9.1714C13.5107,9.8088 15.1503,9.8477 16.6241,9.2582C17.0545,9.086 17.2967,8.6273 17.1961,8.1748L16.2323,3.8373C16.156,3.4941 15.8516,3.25 15.5001,3.25H11.1953C9.5613,3.25 8.1155,4.308 7.6211,5.8653L4.1123,16.9179C3.5494,18.6912 4.873,20.5 6.7334,20.5H19.0001V19H6.7334C5.8878,19 5.2861,18.1778 5.542,17.3718L9.0508,6.3192Z" fill="currentColor" />
</svg>
