<?xml version="1.0"?>
<svg xmlns="http://www.w3.org/2000/svg" width="24.0" height="24.0" viewBox="0 0 24.0 24.0">
  <path d="M15.7114,5.724C16.1536,5.4507 16.7058,5.4259 17.1708,5.6584L19.1708,6.6584C19.679,6.9124 20,7.4318 20,8V16C20,16.5682 19.679,17.0876 19.1708,17.3416L17.1708,18.3416C16.7058,18.5741 16.1536,18.5493 15.7114,18.276C15.2692,18.0027 15,17.5199 15,17V7C15,6.4801 15.2692,5.9973 15.7114,5.724ZM16.5,7V17L18.5,16V8L16.5,7Z" fill="currentColor" />
  <path d="M8.2886,5.724C7.8464,5.4507 7.2942,5.4259 6.8292,5.6584L4.8292,6.6584C4.321,6.9124 4,7.4318 4,8V16C4,16.5682 4.321,17.0876 4.8292,17.3416L6.8292,18.3416C7.2942,18.5741 7.8464,18.5493 8.2886,18.276C8.7308,18.0027 9,17.5199 9,17V7C9,6.4801 8.7308,5.9973 8.2886,5.724ZM7.5,7V17L5.5,16V8L7.5,7Z" fill="currentColor" />
  <path d="M22.75,14.5V9H21.25V14.5H22.75Z" fill="currentColor" />
  <path d="M1.25,15V9.5H2.75V15H1.25Z" fill="currentColor" />
  <path d="M16,12.5H8.5V11H16V12.5Z" fill="currentColor" />
</svg>
