<?xml version="1.0"?>
<svg xmlns="http://www.w3.org/2000/svg" width="24.0" height="24.0" viewBox="0 0 24.0 24.0">
  <path d="M18.5814,2L16.1921,5.584H16.5C18.7091,5.584 20.5,7.3748 20.5,9.584V20.084C20.5,21.4647 19.3807,22.584 18,22.584C16.6193,22.584 15.5,21.4647 15.5,20.084V19.084H8.5V20.084C8.5,21.4647 7.3807,22.584 6,22.584C4.6193,22.584 3.5,21.4647 3.5,20.084V9.584C3.5,7.3748 5.2909,5.584 7.5,5.584H7.7846L10.2836,2.014H12.1146L9.6156,5.584H14.3893L16.7786,2H18.5814ZM5,17.584H19V14.334H5V17.584ZM5,19.084V20.084C5,20.6363 5.4477,21.084 6,21.084C6.5523,21.084 7,20.6363 7,20.084V19.084H5ZM17,19.084V20.084C17,20.6363 17.4477,21.084 18,21.084C18.5523,21.084 19,20.6363 19,20.084V19.084H17ZM5,12.834H19V9.584C19,8.2033 17.8807,7.084 16.5,7.084H7.5C6.1193,7.084 5,8.2033 5,9.584V12.834Z" fill="currentColor" />
</svg>
