<?xml version="1.0"?>
<svg xmlns="http://www.w3.org/2000/svg" width="24.0" height="24.0" viewBox="0 0 24.0 24.0">
  <path d="M2,13.5C2,11.9812 3.2312,10.75 4.75,10.75H19.25C20.7688,10.75 22,11.9812 22,13.5V17.75H2V13.5ZM4.75,12.25C4.0596,12.25 3.5,12.8096 3.5,13.5V16.25H20.5V13.5C20.5,12.8096 19.9404,12.25 19.25,12.25H4.75Z" fill="currentColor" />
  <path d="M8.9319,3.25C6.5874,3.25 4.5936,4.9605 4.2371,7.2777L3.626,12.25H20.3744L19.7633,7.2777C19.4068,4.9605 17.413,3.25 15.0685,3.25H8.9319ZM5.7196,7.5058C5.9636,5.9204 7.3278,4.75 8.9319,4.75H15.0685C16.6726,4.75 18.0368,5.9204 18.2807,7.5058L18.626,10.75H14.0538L15.9788,8H14.1479L12.2229,10.75H10.0538L11.9788,8H10.1479L8.2229,10.75H5.3744L5.7196,7.5058Z" fill="currentColor" />
  <path d="M22,18.75C22,20.1307 20.8807,21.25 19.5,21.25C18.1193,21.25 17,20.1307 17,18.75V17.75H7V18.75C7,20.1307 5.8807,21.25 4.5,21.25C3.1193,21.25 2,20.1307 2,18.75C2,17.8743 2,16.666 2,16.25H22C22,16.25 22,17.8757 22,18.75ZM3.5,17.75V18.75C3.5,19.3023 3.9477,19.75 4.5,19.75C5.0523,19.75 5.5,19.3023 5.5,18.75V17.75H3.5ZM18.5,17.75V18.75C18.5,19.3023 18.9477,19.75 19.5,19.75C20.0523,19.75 20.5,19.3023 20.5,18.75V17.75H18.5Z" fill="currentColor" />
</svg>
