<?xml version="1.0"?>
<svg xmlns="http://www.w3.org/2000/svg" width="24.0" height="24.0" viewBox="0 0 24.0 24.0">
  <path d="M5,4.75C5,3.7835 5.7835,3 6.75,3H14.25C15.2165,3 16,3.7835 16,4.75V19.25C16,20.2165 15.2165,21 14.25,21H6.75C5.7835,21 5,20.2165 5,19.25V4.75ZM6.5,4.5V19.5C6.5,19.5 13.6884,19.5 14.5,19.5V4.5C14.5,4.5 6.5,4.4618 6.5,4.5Z" fill="currentColor" />
  <path d="M5,4.75C5,3.7835 5.7835,3 6.75,3H14.25C15.2165,3 16,3.7835 16,4.75V19.25C16,20.2165 15.2165,21 14.25,21H6.75C5.7835,21 5,20.2165 5,19.25V4.75ZM6.5,4.5V19.5C6.5,19.5 13.6884,19.5 14.5,19.5V4.5C14.5,4.5 6.5,4.4618 6.5,4.5Z" fill="currentColor" />
  <path d="M18.25,7C18.25,6.5858 18.5858,6.25 19,6.25H21.5V7.75H19.75V14C19.75,15.5188 18.5188,16.75 17,16.75H15.5V15.25H17C17.6904,15.25 18.25,14.6904 18.25,14V7Z" fill="currentColor" />
  <path d="M15,9.5H5V11H15V9.5Z" fill="currentColor" />
</svg>
