<?xml version="1.0"?>
<svg xmlns="http://www.w3.org/2000/svg" width="24.0" height="24.0" viewBox="0 0 24.0 24.0">
  <path d="M6.75,3.25C6.3358,3.25 6,3.5858 6,4V9.5C6,9.9142 6.3358,10.25 6.75,10.25H19.25C19.6642,10.25 20,9.9142 20,9.5V7C20,6.7721 19.8964,6.5566 19.7185,6.4143L15.9685,3.4144C15.8355,3.308 15.6703,3.25 15.5,3.25H6.75ZM7.5,8.75V4.75H15.2369L18.5,7.3604V8.75H7.5Z" fill="currentColor" />
  <path d="M4.5,4.25V9.25H3V4.25H4.5Z" fill="currentColor" />
  <path d="M10.25,21V9.5H11.75V20.25L14,20.25V9.5H15.5V21C15.5,21.199 15.421,21.3897 15.2803,21.5304C15.1397,21.671 14.9489,21.75 14.75,21.75L11,21.75C10.5858,21.75 10.25,21.4142 10.25,21Z" fill="currentColor" />
</svg>
