<?xml version="1.0"?>
<svg xmlns="http://www.w3.org/2000/svg" width="24.0" height="24.0" viewBox="0 0 24.0 24.0">
  <path d="M16.4565,12C15.6281,12 14.9565,11.3284 14.9565,10.5V9.3163C13.0738,8.4879 10.9262,8.4879 9.0435,9.3163V10.5C9.0435,11.3284 8.3719,12 7.5435,12H5C4.1716,12 3.5,11.3284 3.5,10.5V8.1795L3.5642,7.966C3.5642,7.966 3.5635,7.9683 5,8.4V10.5H7.5435V8.4C10.2973,6.7934 13.7027,6.7934 16.4565,8.4V10.5H19V8.4C19.0055,8.3984 19.0358,8.3894 19.0841,8.3751C19.3932,8.2839 20.4386,7.9752 20.4365,7.9683L20.5,8.1795V10.5C20.5,11.3284 19.8284,12 19,12H16.4565Z" fill="currentColor" />
  <path d="M20.4365,7.9683L19,8.4C19,8.4 17.9783,5 12,5C6.0217,5 5,8.4 5,8.4L3.5642,7.966L3.5664,7.9586C3.6599,7.658 3.8029,7.3732 3.9632,7.1031C4.2266,6.6594 4.6448,6.1012 5.2882,5.5558C6.5989,4.4447 8.7073,3.5 12,3.5C15.2927,3.5 17.4011,4.4447 18.7118,5.5558C19.3552,6.1012 19.7735,6.6594 20.0368,7.1031C20.1978,7.3743 20.344,7.666 20.4365,7.9683Z" fill="currentColor" />
  <path d="M5.5,16.2878L6.76,13.4442H5.0412L4,15.7122V18.5C4,19.4665 4.7835,20.25 5.75,20.25H18.25C19.2165,20.25 20,19.4665 20,18.5V15.7122L18.9588,13.4442H17.25L18.5,16.2878V18.75H5.5V16.2878Z" fill="currentColor" />
</svg>
