<?xml version="1.0"?>
<svg xmlns="http://www.w3.org/2000/svg" width="24.0" height="24.0" viewBox="0 0 24.0 24.0">
  <path d="M6.0093,8.6315C6.0676,8.2677 6.3815,8 6.7499,8H17.2499C17.6184,8 17.9323,8.2677 17.9905,8.6315L19.6199,18.8155C19.8873,20.4864 18.5966,22 16.9045,22H7.0954C5.4033,22 4.1126,20.4864 4.3799,18.8155L6.0093,8.6315ZM7.3895,9.5L5.8611,19.0525C5.7395,19.812 6.3262,20.5 7.0954,20.5H16.9045C17.6736,20.5 18.2603,19.812 18.1388,19.0525L16.6104,9.5H7.3895Z" fill="currentColor" />
  <path d="M8.75,5.5C8.75,4.5335 9.5335,3.75 10.5,3.75H13.5C14.4665,3.75 15.25,4.5335 15.25,5.5V8H13.75V5.5C13.75,5.3619 13.6381,5.25 13.5,5.25H10.5C10.3619,5.25 10.25,5.3619 10.25,5.5V8H8.75L8.75,5.5Z" fill="currentColor" />
</svg>
