<?xml version="1.0"?>
<svg xmlns="http://www.w3.org/2000/svg" width="24.0" height="24.0" viewBox="0 0 24.0 24.0">
  <path d="M12,2.75C7.679,2.75 4.3929,5.7018 4.3929,9.0968C4.3929,10.7286 4.8742,11.7583 5.2678,12.6003C5.5194,13.1385 5.8022,13.7056 5.7457,14.3168C5.6859,14.9639 5.2741,15.4346 4.7028,15.8169L4.6988,15.8195C4.0694,16.2348 3.75,16.8545 3.75,17.7742C3.75,19.1441 4.8558,20.25 6.2143,20.25C7.5728,20.25 8.6786,19.1441 8.6786,17.7742C8.6786,15.3792 7.6764,13.0135 6.84,11.4644C6.6504,11.1131 6.7692,10.6748 7.1103,10.4673C7.9755,9.9412 8.8076,9.0576 9.3924,7.8106C9.4962,7.5891 9.7016,7.4322 9.9426,7.3902C10.1837,7.3481 10.43,7.4263 10.6027,7.5996C11.9283,8.9299 14.2653,10.2608 16.5324,10.3588C16.7905,10.37 17.0247,10.5132 17.1523,10.7379C17.2798,10.9626 17.2827,11.2371 17.16,11.4644C16.3236,13.0135 15.3214,15.3792 15.3214,17.7742C15.3214,19.1441 16.4273,20.25 17.7857,20.25C19.1442,20.25 20.25,19.1441 20.25,17.7742C20.25,16.8545 19.9306,16.2348 19.3012,15.8195L19.2972,15.8169C18.7259,15.4346 18.3141,14.9639 18.2543,14.3168C18.1978,13.7056 18.4806,13.1385 18.7322,12.6003C19.1258,11.7583 19.6071,10.7286 19.6071,9.0968C19.6071,5.7018 16.3209,2.75 12,2.75ZM2.8929,9.0968C2.8929,4.6528 7.0899,1.25 12,1.25C16.9101,1.25 21.1071,4.6528 21.1071,9.0968C21.1071,11.2414 20.3908,12.5822 19.9938,13.4446C19.7791,13.9111 19.7392,14.0843 19.7479,14.1787V14.1787C19.7481,14.19 19.75,14.3147 20.1296,14.569C21.2463,15.3069 21.75,16.4389 21.75,17.7742C21.75,19.9674 19.9777,21.75 17.7857,21.75C15.5938,21.75 13.8214,19.9674 13.8214,17.7742C13.8214,15.5097 14.5858,13.3366 15.3447,11.7307C13.4139,11.3825 11.5904,10.4007 10.2769,9.3244C9.7653,10.1526 9.1462,10.8318 8.4707,11.3504C9.2848,12.9838 10.1786,15.3255 10.1786,17.7742C10.1786,19.9674 8.4062,21.75 6.2143,21.75C4.0223,21.75 2.25,19.9674 2.25,17.7742C2.25,16.4389 2.7537,15.3069 3.8704,14.569C4.25,14.3146 4.2519,14.1907 4.252,14.1794V14.1794C4.2608,14.085 4.2209,13.9111 4.0062,13.4446C3.6092,12.5821 2.8929,11.2414 2.8929,9.0968Z" fill="currentColor" />
</svg>
