<?xml version="1.0"?>
<svg xmlns="http://www.w3.org/2000/svg" width="24.0" height="24.0" viewBox="0 0 24.0 24.0">
  <path d="M12,9.75C8.5482,9.75 5.75,12.5482 5.75,16C5.75,18.2 6.8863,20.1354 8.6073,21.25H15.3927C17.1137,20.1354 18.25,18.2 18.25,16C18.25,12.5482 15.4518,9.75 12,9.75ZM4.25,16C4.25,11.7198 7.7198,8.25 12,8.25C16.2802,8.25 19.75,11.7198 19.75,16C19.75,18.82 18.2433,21.2874 15.9947,22.6424L15.8161,22.75H8.1839L8.0053,22.6424C5.7567,21.2874 4.25,18.82 4.25,16Z" fill="currentColor" />
  <path d="M8.75,4.25C8.75,3.8358 9.0858,3.5 9.5,3.5H14.5C14.9142,3.5 15.25,3.8358 15.25,4.25V9.5H13.75V5H10.25V9.5H8.75L8.75,4.25Z" fill="currentColor" />
  <path d="M17,5H18.5V6.5H17V5Z" fill="currentColor" />
  <path d="M20,5H21.5V6.5H20V5Z" fill="currentColor" />
  <path d="M20,2H21.5V3.5H20V2Z" fill="currentColor" />
  <path d="M20,8H21.5V9.5H20V8Z" fill="currentColor" />
  <path d="M18.5,3.5H20V5H18.5V3.5Z" fill="currentColor" />
  <path d="M18.5,6.5H20V8H18.5V6.5Z" fill="currentColor" />
</svg>
