<?xml version="1.0"?>
<svg xmlns="http://www.w3.org/2000/svg" width="24.0" height="24.0" viewBox="0 0 24.0 24.0">
  <path d="M10.25,3C10.25,2.3096 10.8096,1.75 11.5,1.75C12.1904,1.75 12.75,2.3096 12.75,3C12.75,3.6904 12.1904,4.25 11.5,4.25V5.75C13.0188,5.75 14.25,4.5188 14.25,3C14.25,1.4812 13.0188,0.25 11.5,0.25C9.9812,0.25 8.75,1.4812 8.75,3H10.25Z" fill="currentColor" />
  <path d="M16.8035,6.5633C16.2465,6.2848 15.576,6.3734 15.1105,6.7872C13.0515,8.6175 9.9486,8.6175 7.8895,6.7872C7.424,6.3734 6.7535,6.2848 6.1965,6.5633L2.8304,8.2463C2.4747,8.4242 2.25,8.7877 2.25,9.1854V13.7C2.25,14.2799 2.7201,14.75 3.3,14.75H5.75V21C5.75,21.6904 6.3096,22.25 7,22.25H16C16.6904,22.25 17.25,21.6904 17.25,21V14.75H19.5C20.1904,14.75 20.75,14.1904 20.75,13.5V9.1854C20.75,8.7877 20.5253,8.4242 20.1696,8.2463L16.8035,6.5633ZM16.1071,7.9083C16.1141,7.9021 16.1243,7.9007 16.1327,7.9049L19.25,9.4636V13.25H16.501C16.0861,13.25 15.75,13.5864 15.75,14.001V20.75H7.25V14.1C7.25,13.6306 6.8694,13.25 6.4,13.25H3.75V9.4636L6.8673,7.9049C6.8757,7.9007 6.8859,7.9021 6.8929,7.9083C9.5203,10.2438 13.4797,10.2438 16.1071,7.9083Z" fill="currentColor" />
</svg>
