<?xml version="1.0"?>
<svg xmlns="http://www.w3.org/2000/svg" width="24.0" height="24.0" viewBox="0 0 24.0 24.0">
  <path d="M10,15.5V19.5H13V15.5H10ZM8.5,15C8.5,14.4477 8.9477,14 9.5,14H13.5C14.0523,14 14.5,14.4477 14.5,15V21H8.5V15Z" fill="currentColor" />
  <path d="M11.0121,2.4306C11.293,2.1898 11.7074,2.1898 11.9883,2.4306L21.5121,10.5938V12.5694L19.0002,10.4164V20.25C19.0002,20.6642 18.6644,21 18.2502,21H4.7502C4.336,21 4.0002,20.6642 4.0002,20.25V10.4164L1.4883,12.5694V10.5938L11.0121,2.4306ZM5.5002,9.1307V19.5H17.5002V9.1307L11.5002,3.9878L5.5002,9.1307Z" fill="currentColor" />
</svg>
