<?xml version="1.0"?>
<svg xmlns="http://www.w3.org/2000/svg" width="24.0" height="24.0" viewBox="0 0 24.0 24.0">
  <path d="M6,4.75C6,3.7835 6.7835,3 7.75,3H16.25C17.2165,3 18,3.7835 18,4.75V19.25C18,20.2165 17.2165,21 16.25,21H7.75C6.7835,21 6,20.2165 6,19.25V4.75ZM7.5,4.5V19.5C7.5,19.5 15.6884,19.5 16.5,19.5V4.5C16.5,4.5 7.5,4.4618 7.5,4.5Z" fill="currentColor" />
  <path d="M6,4.75C6,3.7835 6.7835,3 7.75,3H16.25C17.2165,3 18,3.7835 18,4.75V19.25C18,20.2165 17.2165,21 16.25,21H7.75C6.7835,21 6,20.2165 6,19.25V4.75ZM7.5,4.5V19.5C7.5,19.5 15.6884,19.5 16.5,19.5V4.5C16.5,4.5 7.5,4.4618 7.5,4.5Z" fill="currentColor" />
  <path d="M18,14H6V15.5H18V14Z" fill="currentColor" />
  <path d="M12,18.5C12.5523,18.5 13,18.0523 13,17.5C13,16.9477 12.5523,16.5 12,16.5C11.4477,16.5 11,16.9477 11,17.5C11,18.0523 11.4477,18.5 12,18.5Z" fill="currentColor" />
</svg>
