<?xml version="1.0"?>
<svg xmlns="http://www.w3.org/2000/svg" width="24.0" height="24.0" viewBox="0 0 24.0 24.0">
  <path d="M12,0.25C8.134,0.25 5,3.384 5,7.25V10.5L6.5,10V7.25C6.5,4.2124 8.9624,1.75 12,1.75C15.0376,1.75 17.5,4.2124 17.5,7.25V10L19,10.5V7.25C19,3.384 15.866,0.25 12,0.25Z" fill="currentColor" />
  <path d="M10.25,6V7.5C10.25,8.4665 11.0335,9.25 12,9.25C12.9665,9.25 13.75,8.4665 13.75,7.5V6H15.25V7.5C15.25,9.2949 13.7949,10.75 12,10.75C10.2051,10.75 8.75,9.2949 8.75,7.5V6H10.25Z" fill="currentColor" />
  <path d="M5.3855,16.2654C5.634,13.8424 7.675,12 10.1107,12H13.8893C16.325,12 18.366,13.8424 18.6145,16.2654L19.1001,21H17.5922L17.1223,16.4184C16.9523,14.7606 15.5558,13.5 13.8893,13.5H10.1107C8.4442,13.5 7.0477,14.7606 6.8777,16.4184L6.4078,21H4.8999L5.3855,16.2654Z" fill="currentColor" />
</svg>
