<?xml version="1.0"?>
<svg xmlns="http://www.w3.org/2000/svg" width="24.0" height="24.0" viewBox="0 0 24.0 24.0">
  <path d="M10.1107,11C7.675,11 5.634,12.8424 5.3855,15.2654L4.7974,21H6.3052L6.8777,15.4184C7.0477,13.7606 8.4442,12.5 10.1107,12.5H13.8893C15.5558,12.5 16.9523,13.7606 17.1223,15.4184L17.6948,21H19.2027L18.6145,15.2654C18.366,12.8424 16.325,11 13.8893,11H10.1107Z" fill="currentColor" />
  <path d="M11.25,14V18.5L12,19L12.75,18.5V14H11.25Z" fill="currentColor" />
  <path d="M8.75,5.5C8.75,3.7051 10.2051,2.25 12,2.25C13.7949,2.25 15.25,3.7051 15.25,5.5V6.5C15.25,8.2949 13.7949,9.75 12,9.75C10.2051,9.75 8.75,8.2949 8.75,6.5V5.5ZM12,3.75C11.0335,3.75 10.25,4.5335 10.25,5.5V6.5C10.25,7.4665 11.0335,8.25 12,8.25C12.9665,8.25 13.75,7.4665 13.75,6.5V5.5C13.75,4.5335 12.9665,3.75 12,3.75Z" fill="#000000ff" />
</svg>
