<?xml version="1.0"?>
<svg xmlns="http://www.w3.org/2000/svg" width="24.0" height="24.0" viewBox="0 0 24.0 24.0">
  <path d="M10.5,11C10.5,11.5523 10.0523,12 9.5,12C8.9477,12 8.5,11.5523 8.5,11C8.5,10.4477 8.9477,10 9.5,10C10.0523,10 10.5,10.4477 10.5,11Z" fill="currentColor" />
  <path d="M15.5,11C15.5,11.5523 15.0523,12 14.5,12C13.9477,12 13.5,11.5523 13.5,11C13.5,10.4477 13.9477,10 14.5,10C15.0523,10 15.5,10.4477 15.5,11Z" fill="currentColor" />
  <path d="M10.5367,3.5389C10.0875,2.9667 9.3533,2.4675 8.4279,2.2195L8.8161,0.7706C10.0247,1.0944 11.0485,1.7616 11.7166,2.6128C12.1006,3.1019 12.3755,3.6661 12.4851,4.2623C16.2541,4.4538 19.4324,6.8632 20.4699,10.1757C21.5184,10.6715 22.25,11.7316 22.25,12.9688C22.25,14.3729 21.3086,15.5486 20.0281,15.9311C18.6269,18.7938 15.5424,20.75 12,20.75C8.4576,20.75 5.3731,18.7938 3.9719,15.9311C2.6914,15.5486 1.75,14.3729 1.75,12.9688C1.75,11.7316 2.4816,10.6715 3.5301,10.1757C4.5156,7.029 7.4332,4.6972 10.9537,4.3076C10.8738,4.0519 10.7357,3.7925 10.5367,3.5389ZM12,5.75C8.5094,5.75 5.6372,7.9893 4.8755,10.9248L4.7713,11.3264L4.3756,11.4515C3.7163,11.66 3.25,12.266 3.25,12.9688C3.25,13.7547 3.8342,14.4199 4.6155,14.5424L5.0245,14.6066L5.1882,14.9868C6.254,17.4622 8.8838,19.25 12,19.25C15.1162,19.25 17.746,17.4622 18.8118,14.9868L18.9755,14.6066L19.3845,14.5424C20.1657,14.4199 20.75,13.7547 20.75,12.9688C20.75,12.266 20.2837,11.66 19.6243,11.4515L19.2287,11.3264L19.1245,10.9248C18.3628,7.9893 15.4906,5.75 12,5.75Z" fill="currentColor" />
  <path d="M14.5,14C14.5,15 13.3299,16 12,16C10.6701,16 9.5,15 9.5,14" fill="#00000000" stroke-width="1.5" stroke="#151516ff" />
</svg>
