<?xml version="1.0"?>
<svg xmlns="http://www.w3.org/2000/svg" width="24.0" height="24.0" viewBox="0 0 24.0 24.0">
  <path d="M3.4393,6.9393C3.7206,6.658 4.1022,6.5 4.5,6.5H19.5C20.3284,6.5 21,7.1716 21,8V18.5C21,19.3284 20.3284,20 19.5,20H4.5C3.6716,20 3,19.3284 3,18.5V8C3,7.6022 3.158,7.2206 3.4393,6.9393ZM4.5,8V18.5H19.5V8H4.5Z" fill="currentColor" />
  <path d="M11.25,14V15.75H12.75V14H14.5V12.5L12.75,12.5V10.75H11.25V12.5L9.5,12.5V14H11.25Z" fill="currentColor" />
  <path d="M11,4.75C10.3096,4.75 9.75,5.3096 9.75,6V7H8.25L8.25,6C8.25,4.4812 9.4812,3.25 11,3.25H13C14.5188,3.25 15.75,4.4812 15.75,6V7H14.25V6C14.25,5.3096 13.6904,4.75 13,4.75H11Z" fill="currentColor" />
</svg>
