<?xml version="1.0"?>
<svg xmlns="http://www.w3.org/2000/svg" width="24.0" height="24.0" viewBox="0 0 24.0 24.0">
  <path d="M3,8.5C3,7.6716 3.6716,7 4.5,7H19.5C20.3284,7 21,7.6716 21,8.5V18.5C21,19.3284 20.3284,20 19.5,20H4.5C3.6716,20 3,19.3284 3,18.5V8.5ZM4.5,8.5V18.5H19.5V8.5H4.5Z" fill="currentColor" />
  <path d="M6.25,6.2361C6.25,4.1918 8.4014,2.8622 10.2298,3.7764L11.8882,4.6056C11.9586,4.6408 12.0414,4.6408 12.1118,4.6056L13.7702,3.7764C15.5986,2.8622 17.75,4.1918 17.75,6.2361V7H16.25V6.2361C16.25,5.3069 15.2721,4.7025 14.441,5.1181L12.7826,5.9472C12.29,6.1936 11.71,6.1936 11.2174,5.9472L9.559,5.1181C8.7279,4.7025 7.75,5.3069 7.75,6.2361V7H6.25L6.25,6.2361Z" fill="currentColor" />
  <path d="M9.25,8.5L9.25,18.5H10.75V8.5H9.25Z" fill="currentColor" />
  <path d="M13.25,8.5V18.5H14.75V8.5H13.25Z" fill="currentColor" />
</svg>
