<?xml version="1.0"?>
<svg xmlns="http://www.w3.org/2000/svg" width="24.0" height="24.0" viewBox="0 0 24.0 24.0">
  <path d="M11.25,8.75C11.25,6.6789 12.9289,5 15,5H21V18.25C21,18.6642 20.6642,19 20.25,19H12C11.5858,19 11.25,18.6642 11.25,18.25V8.75ZM15,6.5C13.7574,6.5 12.75,7.5074 12.75,8.75V17.5H19.5V6.5H15Z" fill="currentColor" />
  <path d="M12.75,8.75C12.75,6.6789 11.0711,5 9,5H3V18.25C3,18.6642 3.3358,19 3.75,19H12C12.4142,19 12.75,18.6642 12.75,18.25V8.75ZM9,6.5C10.2426,6.5 11.25,7.5074 11.25,8.75V17.5H4.5V6.5H9Z" fill="currentColor" />
</svg>
