<?xml version="1.0"?>
<svg xmlns="http://www.w3.org/2000/svg" width="24.0" height="24.0" viewBox="0 0 24.0 24.0">
  <path d="M11.8389,9C11.5626,9 11.3079,9.1236 11.126,9.3348L10.6364,9.903L9.5,8.9239L9.9895,8.3557C10.437,7.8363 11.0971,7.5 11.8389,7.5C13.2291,7.5 14.3077,8.6625 14.3077,10.0357C14.3077,10.6911 14.0645,11.2936 13.6613,11.7466C13.5414,11.8812 13.4328,11.9962 13.3317,12.1031C13.1624,12.2822 13.0143,12.4389 12.8699,12.6284C12.6598,12.9044 12.5889,13.0965 12.5889,13.25H11.0889C11.0889,12.6145 11.3868,12.1002 11.6766,11.7197C11.8658,11.4712 12.1151,11.2059 12.3173,10.9908C12.4029,10.8996 12.4803,10.8173 12.5409,10.7492C12.7045,10.5654 12.8077,10.3161 12.8077,10.0357C12.8077,9.4365 12.3472,9 11.8389,9Z" fill="currentColor" />
  <path d="M12.8076,15.25C12.8076,15.8023 12.3599,16.25 11.8076,16.25C11.2553,16.25 10.8076,15.8023 10.8076,15.25C10.8076,14.6977 11.2553,14.25 11.8076,14.25C12.3599,14.25 12.8076,14.6977 12.8076,15.25Z" fill="currentColor" />
  <path d="M12,22C17.5228,22 22,17.5228 22,12C22,6.4771 17.5228,2 12,2C6.4771,2 2,6.4771 2,12C2,17.5228 6.4771,22 12,22ZM20.5,12C20.5,16.6944 16.6944,20.5 12,20.5C7.3056,20.5 3.5,16.6944 3.5,12C3.5,7.3056 7.3056,3.5 12,3.5C16.6944,3.5 20.5,7.3056 20.5,12Z" fill="currentColor" />
</svg>
