<?xml version="1.0"?>
<svg xmlns="http://www.w3.org/2000/svg" width="24.0" height="24.0" viewBox="0 0 24.0 24.0">
  <path d="M15.1661,11.0518C15.5309,10.4446 16.3312,10.2689 16.9168,10.6675L21.6055,13.8597C23.1035,14.8796 24,16.5744 24,18.3866H22.5C22.5,17.0708 21.8491,15.8402 20.7614,15.0997L16.3064,12.0666L15.833,12.8546L18.3636,16.4554C18.5298,16.6918 18.5453,17.0027 18.4036,17.2545C18.2618,17.5064 17.988,17.6543 17.6997,17.6349L7,16.9152V17.9215L15.1219,22.1366L22.75,22.1367L22.75,23.6367L14.9389,23.6366C14.8186,23.6366 14.7001,23.6077 14.5934,23.5523L6.1742,19.1828C5.76,18.9679 5.5,18.5401 5.5,18.0734V16.6478C5.5,15.9244 6.1122,15.3521 6.8339,15.4006L16.2333,16.0329L14.5123,13.584C14.228,13.1795 14.2089,12.6455 14.4634,12.2217L15.1661,11.0518Z" fill="currentColor" />
  <path d="M10,5.5H6V7H10V5.5Z" fill="currentColor" />
  <path d="M8,1C5.1005,1 2.75,3.3505 2.75,6.25C2.75,9.1495 5.1005,11.5 8,11.5C10.8995,11.5 13.25,9.1495 13.25,6.25C13.25,3.3505 10.8995,1 8,1ZM4.25,6.25C4.25,4.1789 5.9289,2.5 8,2.5C10.0711,2.5 11.75,4.1789 11.75,6.25C11.75,8.3211 10.0711,10 8,10C5.9289,10 4.25,8.3211 4.25,6.25Z" fill="currentColor" />
</svg>
