<?xml version="1.0"?>
<svg xmlns="http://www.w3.org/2000/svg" width="24.0" height="24.0" viewBox="0 0 24.0 24.0">
  <path d="M1.75,4C1.3358,4 1,4.3358 1,4.75V16.25C1,16.6642 1.3358,17 1.75,17H18.25C18.6642,17 19,16.6642 19,16.25V4.75C19,4.3358 18.6642,4 18.25,4H1.75ZM2.5,15.5V5.5H17.5V15.5H2.5Z" fill="currentColor" />
  <path d="M22.5,19.5V7H21V19.25H3V20.75H21.25C21.9404,20.75 22.5,20.1904 22.5,19.5Z" fill="currentColor" />
  <path d="M10,13.5C11.6569,13.5 13,12.1569 13,10.5C13,8.8432 11.6569,7.5 10,7.5C8.3432,7.5 7,8.8432 7,10.5C7,12.1569 8.3432,13.5 10,13.5ZM11.5,10.5C11.5,11.3284 10.8284,12 10,12C9.1716,12 8.5,11.3284 8.5,10.5C8.5,9.6716 9.1716,9 10,9C10.8284,9 11.5,9.6716 11.5,10.5Z" fill="currentColor" />
</svg>
