<?xml version="1.0"?>
<svg xmlns="http://www.w3.org/2000/svg" width="24.0" height="24.0" viewBox="0 0 24.0 24.0">
  <path d="M11.75,3C9.7258,3 7.8562,3.4086 6.4648,4.1043C5.1184,4.7776 4,5.8464 4,7.25C4,8.6536 5.1184,9.7225 6.4648,10.3957C7.8562,11.0914 9.7258,11.5 11.75,11.5C13.7742,11.5 15.6438,11.0914 17.0352,10.3957C18.3816,9.7225 19.5,8.6536 19.5,7.25C19.5,5.8464 18.3816,4.7776 17.0352,4.1043C15.6438,3.4086 13.7742,3 11.75,3ZM5.5,7.25C5.5,6.7206 5.9486,6.0395 7.1357,5.446C8.2778,4.8749 9.9082,4.5 11.75,4.5C13.5918,4.5 15.2222,4.8749 16.3643,5.446C17.5514,6.0395 18,6.7206 18,7.25C18,7.7794 17.5514,8.4605 16.3643,9.0541C15.2222,9.6251 13.5918,10 11.75,10C9.9082,10 8.2778,9.6251 7.1357,9.0541C5.9486,8.4605 5.5,7.7794 5.5,7.25Z" fill="#000000ff" />
  <path d="M4.8649,9.25C4.3375,9.8089 4,10.4789 4,11.25C4,12.6536 5.1184,13.7225 6.4648,14.3957C7.8562,15.0914 9.7258,15.5 11.75,15.5C13.7742,15.5 15.6438,15.0914 17.0352,14.3957C18.3816,13.7225 19.5,12.6536 19.5,11.25C19.5,10.4789 19.1625,9.8089 18.6351,9.25C18.3013,9.6038 17.8914,9.913 17.4429,10.1752C17.8357,10.5537 18,10.9296 18,11.25C18,11.7794 17.5514,12.4605 16.3643,13.0541C15.2222,13.6251 13.5918,14 11.75,14C9.9082,14 8.2778,13.6251 7.1357,13.0541C5.9486,12.4605 5.5,11.7794 5.5,11.25C5.5,10.9296 5.6643,10.5537 6.0571,10.1752C5.6086,9.913 5.1987,9.6038 4.8649,9.25Z" fill="#000000ff" />
  <path d="M14,17.8039C13.3046,17.9298 12.5471,18 11.75,18C9.9082,18 8.2778,17.6251 7.1357,17.0541C5.9486,16.4605 5.5,15.7794 5.5,15.25C5.5,14.9296 5.6643,14.5537 6.0571,14.1752C5.6086,13.913 5.1987,13.6038 4.8649,13.25C4.3375,13.8089 4,14.4789 4,15.25C4,16.6536 5.1184,17.7225 6.4648,18.3957C7.8562,19.0914 9.7258,19.5 11.75,19.5C12.529,19.5 13.2852,19.4395 14,19.3253V17.8039Z" fill="#000000ff" />
  <path d="M18,18C18,18.5523 17.5523,19 17,19C16.4477,19 16,18.5523 16,18C16,17.4477 16.4477,17 17,17C17.5523,17 18,17.4477 18,18Z" fill="currentColor" />
  <path d="M17,20.8787L21,17V19.1213L17,23V20.8787Z" fill="currentColor" />
  <path d="M21,23C21.5523,23 22,22.5523 22,22C22,21.4477 21.5523,21 21,21C20.4477,21 20,21.4477 20,22C20,22.5523 20.4477,23 21,23Z" fill="currentColor" />
</svg>
