<?xml version="1.0"?>
<svg xmlns="http://www.w3.org/2000/svg" width="24.0" height="24.0" viewBox="0 0 24.0 24.0">
  <path d="M14.482,3.8539C14.5666,3.6635 14.3949,3.4593 14.1929,3.5098L12.1819,4.0125C12.0625,4.0424 11.9375,4.0424 11.8181,4.0125L9.8071,3.5098C9.6051,3.4593 9.4335,3.6635 9.5181,3.8539L10.6854,6.4803L9.3146,7.0895L8.1473,4.4631C7.5552,3.1307 8.7565,1.701 10.1709,2.0546L12,2.5119L13.8291,2.0546C15.2436,1.701 16.4448,3.1307 15.8527,4.4631L14.6854,7.0895L13.3147,6.4803L14.482,3.8539Z" fill="currentColor" />
  <path d="M11,6.5H13C16.5899,6.5 20,9.5 20,13.5V18.5C20,20.433 18.433,22 16.5,22H7.5C5.567,22 4,20.433 4,18.5V13.5C4,9.5 7.4102,6.5 11,6.5ZM11,8C8.2386,8 5.5,10.5 5.5,13.5V18.5C5.5,19.6046 6.3954,20.5 7.5,20.5H16.5C17.6046,20.5 18.5,19.6046 18.5,18.5V13.5C18.5,10.5 15.7614,8 13,8H11Z" fill="currentColor" />
  <path d="M12,17.5C13.6569,17.5 15,16.1569 15,14.5C15,12.8431 13.6569,11.5 12,11.5C10.3431,11.5 9,12.8431 9,14.5C9,16.1569 10.3431,17.5 12,17.5ZM13.5,14.5C13.5,15.3284 12.8284,16 12,16C11.1716,16 10.5,15.3284 10.5,14.5C10.5,13.6716 11.1716,13 12,13C12.8284,13 13.5,13.6716 13.5,14.5Z" fill="currentColor" />
</svg>
