<?xml version="1.0"?>
<svg xmlns="http://www.w3.org/2000/svg" width="24.0" height="24.0" viewBox="0 0 24.0 24.0">
  <path d="M15.3547,3.7503C15.0581,3.0172 14.3395,2.5 13.5,2.5C12.3954,2.5 11.5,3.3954 11.5,4.5C11.5,5.1622 11.8218,5.7492 12.3176,6.1132C12.0528,6.5418 11.8452,7.0095 11.7055,7.5056C10.6839,6.8943 10,5.777 10,4.5C10,2.567 11.567,1 13.5,1C15.0862,1 16.4259,2.0552 16.8556,3.5019C16.334,3.5153 15.8305,3.6014 15.3547,3.7503Z" fill="currentColor" />
  <path d="M9.8332,10.6677C10.4188,10.269 11.2191,10.4447 11.5839,11.0519L12.2866,12.2218C12.5411,12.6456 12.522,13.1797 12.2377,13.5842L10.5167,16.033L19.9161,15.4008C20.6379,15.3522 21.25,15.9246 21.25,16.6479V18.0735C21.25,18.5402 20.99,18.968 20.5758,19.183L12.1566,23.5524C12.0499,23.6078 11.9314,23.6368 11.8111,23.6368L4,23.6368L4,22.1368L11.6281,22.1368L19.75,17.9216V16.9153L9.0503,17.6351C8.762,17.6545 8.4882,17.5065 8.3464,17.2546C8.2047,17.0028 8.2202,16.6919 8.3864,16.4555L10.917,12.8547L10.4436,12.0667L5.9886,15.0998C4.9009,15.8403 4.25,17.0709 4.25,18.3868H2.75C2.75,16.5746 3.6465,14.8797 5.1445,13.8599L9.8332,10.6677Z" fill="currentColor" />
  <path d="M17,13C19.2091,13 21,11.2091 21,9C21,6.7909 19.2091,5 17,5C14.7909,5 13,6.7909 13,9C13,11.2091 14.7909,13 17,13ZM19.5,9C19.5,10.3807 18.3807,11.5 17,11.5C15.6193,11.5 14.5,10.3807 14.5,9C14.5,7.6193 15.6193,6.5 17,6.5C18.3807,6.5 19.5,7.6193 19.5,9Z" fill="currentColor" />
</svg>
